<svg width="11" height="11" fill="none" viewBox="0 0 11 11" xmlns="http://www.w3.org/2000/svg"><g clip-path="url(#moon_svg__a)"><path fill="currentColor" d="M9.74 5.5A4.24 4.24 0 0 1 5.5 9.74v.687A4.927 4.927 0 0 0 10.427 5.5zM5.5 9.74A4.24 4.24 0 0 1 1.26 5.5H.573A4.927 4.927 0 0 0 5.5 10.427zM1.26 5.5A4.24 4.24 0 0 1 5.5 1.26V.573A4.927 4.927 0 0 0 .573 5.5zm5.844 1.031A2.635 2.635 0 0 1 4.47 3.896h-.69a3.323 3.323 0 0 0 3.323 3.323zm2.257-1.274A2.64 2.64 0 0 1 7.104 6.53v.688A3.32 3.32 0 0 0 9.95 5.612zM4.47 3.896a2.64 2.64 0 0 1 1.274-2.257l-.355-.589A3.32 3.32 0 0 0 3.78 3.896zM5.5 1.26a.17.17 0 0 1-.123-.054.14.14 0 0 1-.037-.07c-.002-.015-.001-.056.048-.086l.355.589a.6.6 0 0 0 .278-.596C5.993.835 5.83.573 5.5.573zm4.45 4.352c-.03.05-.071.05-.085.048a.14.14 0 0 1-.071-.037.17.17 0 0 1-.054-.123h.687c0-.329-.262-.493-.47-.521a.6.6 0 0 0-.596.278z"/></g><defs><clipPath id="moon_svg__a"><path d="M0 0h11v11H0z"/></clipPath></defs></svg>