<svg width="11" height="11" fill="none" viewBox="0 0 11 11" xmlns="http://www.w3.org/2000/svg"><g clip-path="url(#sun_svg__a)"><path fill="currentColor" fill-rule="evenodd" d="M5.5 7.333a1.833 1.833 0 1 0 0-3.666 1.833 1.833 0 0 0 0 3.666m0 .917a2.75 2.75 0 1 0 0-5.5 2.75 2.75 0 0 0 0 5.5M5.042 0h.916v1.862a3.7 3.7 0 0 0-.916 0zm-1.79 2.603L1.934 1.287l-.648.648 1.316 1.316q.284-.365.648-.648M1.86 5.042H0v.916h1.862a3.7 3.7 0 0 1 0-.916m.741 2.707L1.287 9.065l.648.648 1.316-1.316a3.7 3.7 0 0 1-.648-.648m2.439 1.39V11h.916V9.138a3.7 3.7 0 0 1-.916 0m2.707-.742 1.316 1.316.648-.648-1.316-1.316q-.284.365-.648.648m1.39-2.439H11v-.916H9.138q.058.458 0 .916M8.396 3.25l1.316-1.316-.648-.648-1.316 1.316q.365.284.648.648" clip-rule="evenodd"/></g><defs><clipPath id="sun_svg__a"><path d="M0 0h11v11H0z"/></clipPath></defs></svg>